<svg data-logo="logo" xmlns="http://www.w3.org/2000/svg" viewBox="0 0 235 43">
        <g id="logogram" transform="translate(0, 1) rotate(0)"><path d="M0.301758 30.08L0.301761 10.08L10.3018 15.6355V24.5799L18.3018 29.08L26.3018 24.5799V15.6355L36.3019 10.08V30.08L18.3018 40.08L0.301758 30.08Z" fill="#192657"></path><path fill-rule="evenodd" clip-rule="evenodd" d="M5.30177 12.8578L0.301758 10.08L18.3018 0.0799561L36.3019 10.08L31.3018 12.8578V27.58L18.3018 35.08L5.30176 27.58L5.30177 12.8578ZM30.7602 13.1587L26.3018 15.6355V15.58L18.3018 11.0799L10.3018 15.58V15.6355L5.84343 13.1587V27.2723L18.3018 34.4598L30.7602 27.2723V13.1587Z" fill="url(#paint0_linear_5558_2243)"></path></g>
        <g id="logotype" transform="translate(43, 8)"><path fill="#ffffff" d="M21.65 27L16.99 27L16.99 27L16.99 6.45L6.70 6.45L6.70 1.80L31.90 1.80L31.90 6.45L21.65 6.45L21.65 27ZM38.97 27L34.38 27L34.38 27L34.38 11.53Q34.38 10.20 35.05 9.11Q35.71 8.03 36.82 7.36Q37.92 6.70 39.21 6.70L39.21 6.70L50.48 6.70L50.48 11.28L39.39 11.28Q39.21 11.28 39.09 11.41Q38.97 11.53 38.97 11.70L38.97 11.70L38.97 27ZM73.76 27L57.98 27Q56.65 27 55.54 26.34Q54.44 25.67 53.79 24.59Q53.15 23.50 53.15 22.17L53.15 22.17L53.15 14.54L69.18 14.54L69.18 11.70Q69.18 11.53 69.05 11.41Q68.93 11.28 68.76 11.28L68.76 11.28L53.15 11.28L53.15 6.70L68.93 6.70Q70.26 6.70 71.36 7.36Q72.47 8.03 73.11 9.11Q73.76 10.20 73.76 11.53L73.76 11.53L73.76 27ZM58.15 22.41L58.15 22.41L69.18 22.41L69.18 18.67L57.73 18.67L57.73 21.99Q57.73 22.17 57.85 22.29Q57.98 22.41 58.15 22.41ZM81.29 27L81.29 27Q79.96 27 78.87 26.34Q77.79 25.67 77.12 24.59Q76.46 23.50 76.46 22.17L76.46 22.17L76.46 11.53Q76.46 10.20 77.12 9.11Q77.79 8.03 78.87 7.36Q79.96 6.70 81.29 6.70L81.29 6.70L97.04 6.70L97.04 11.28L81.46 11.28Q81.29 11.28 81.16 11.41Q81.04 11.53 81.04 11.70L81.04 11.70L81.04 21.99Q81.04 22.17 81.16 22.29Q81.29 22.41 81.46 22.41L81.46 22.41L97.07 22.41L97.07 27L81.29 27ZM104.56 27L99.98 27L99.98 27L99.98 0.05L104.56 0.05L104.56 14.54L108.17 14.54L115.41 6.70L120.31 6.70L120.31 7.96L112.23 16.85L120.28 25.74L120.28 27L115.41 27L108.17 19.16L104.56 19.16L104.56 27ZM143.20 27L122.59 27L122.59 27L122.59 21.99L136.45 11.28L122.59 11.28L122.59 6.70L143.20 6.70L143.20 11.70L129.34 22.41L143.20 22.41L143.20 27ZM150.87 27L150.87 27Q149.54 27 148.45 26.34Q147.37 25.67 146.70 24.59Q146.04 23.50 146.04 22.17L146.04 22.17L146.04 11.53Q146.04 10.20 146.70 9.11Q147.37 8.03 148.45 7.36Q149.54 6.70 150.87 6.70L150.87 6.70L161.82 6.70Q163.15 6.70 164.25 7.36Q165.36 8.03 166.00 9.11Q166.65 10.20 166.65 11.53L166.65 11.53L166.65 19.16L150.62 19.16L150.62 21.99Q150.62 22.17 150.74 22.29Q150.87 22.41 151.04 22.41L151.04 22.41L166.65 22.41L166.65 27L150.87 27ZM150.62 11.70L150.62 15.03L162.07 15.03L162.07 11.70Q162.07 11.53 161.94 11.41Q161.82 11.28 161.65 11.28L161.65 11.28L151.04 11.28Q150.87 11.28 150.74 11.41Q150.62 11.53 150.62 11.70L150.62 11.70ZM174.95 27L170.36 27L170.36 27L170.36 6.70L186.15 6.70Q187.48 6.70 188.58 7.36Q189.68 8.03 190.33 9.11Q190.98 10.20 190.98 11.53L190.98 11.53L190.98 27L186.39 27L186.39 11.70Q186.39 11.53 186.27 11.41Q186.15 11.28 185.97 11.28L185.97 11.28L175.37 11.28Q175.19 11.28 175.07 11.41Q174.95 11.53 174.95 11.70L174.95 11.70L174.95 27Z"></path></g>
        <defs xmlns="http://www.w3.org/2000/svg">
<linearGradient id="paint0_linear_5558_2243" x1="5.30176" y1="7.85773" x2="32.3018" y2="7.85774" gradientUnits="userSpaceOnUse">
<stop stop-color="#64C2DB"></stop>
<stop offset="0.307292" stop-color="#7476ED"></stop>
<stop offset="0.604167" stop-color="#C994DF"></stop>
<stop offset="1" stop-color="#E56F8C"></stop>
</linearGradient>
</defs>
      </svg>