
      <svg data-logo="logo" xmlns="http://www.w3.org/2000/svg" viewBox="0 0 193 43">
        <g id="logogram" transform="translate(0, 1) rotate(0) "><path d="M0.301758 30.08L0.301761 10.08L10.3018 15.6355V24.5799L18.3018 29.08L26.3018 24.5799V15.6355L36.3019 10.08V30.08L18.3018 40.08L0.301758 30.08Z" fill="#192657"/><path fill-rule="evenodd" clip-rule="evenodd" d="M5.30177 12.8578L0.301758 10.08L18.3018 0.0799561L36.3019 10.08L31.3018 12.8578V27.58L18.3018 35.08L5.30176 27.58L5.30177 12.8578ZM30.7602 13.1587L26.3018 15.6355V15.58L18.3018 11.0799L10.3018 15.58V15.6355L5.84343 13.1587V27.2723L18.3018 34.4598L30.7602 27.2723V13.1587Z" fill="url(#paint0_linear_5558_2243)"/></g>
        <g id="logotype" transform="translate(43, 8.5)"><path fill="#111111" d="M15.07 4.86L7.28 4.86L7.28 0.54L28.08 0.54L28.08 4.86L20.30 4.86L20.30 26L15.07 26L15.07 4.86ZM34.40 26L29.27 26L29.27 6.89L34.23 6.89L34.23 10.23L34.44 10.23Q34.97 8.45 36.20 7.54Q37.44 6.64 39.05 6.64L39.05 6.64Q39.44 6.64 39.90 6.68Q40.35 6.72 40.71 6.81L40.71 6.81L40.71 11.39Q40.37 11.27 39.72 11.20Q39.07 11.13 38.49 11.13L38.49 11.13Q37.32 11.13 36.38 11.64Q35.44 12.14 34.92 13.04Q34.40 13.93 34.40 15.13L34.40 15.13L34.40 26ZM46.58 26.38L46.58 26.38Q44.77 26.38 43.33 25.74Q41.88 25.09 41.06 23.82Q40.23 22.55 40.23 20.65L40.23 20.65Q40.23 19.06 40.82 17.98Q41.41 16.91 42.42 16.26Q43.44 15.61 44.73 15.27Q46.02 14.93 47.44 14.79L47.44 14.79Q49.10 14.62 50.11 14.47Q51.13 14.33 51.60 14.01Q52.07 13.70 52.07 13.08L52.07 13.08L52.07 12.99Q52.07 12.17 51.73 11.61Q51.39 11.05 50.72 10.75Q50.05 10.45 49.08 10.45L49.08 10.45Q48.09 10.45 47.35 10.75Q46.62 11.05 46.16 11.54Q45.70 12.04 45.47 12.65L45.47 12.65L40.77 11.87Q41.27 10.21 42.41 9.05Q43.56 7.88 45.26 7.27Q46.96 6.65 49.08 6.65L49.08 6.65Q50.63 6.65 52.09 7.02Q53.54 7.39 54.69 8.16Q55.85 8.93 56.52 10.16Q57.20 11.39 57.20 13.13L57.20 13.13L57.20 26L52.34 26L52.34 23.35L52.17 23.35Q51.71 24.24 50.94 24.91Q50.17 25.59 49.09 25.98Q48.00 26.38 46.58 26.38ZM48.04 22.77L48.04 22.77Q49.25 22.77 50.16 22.29Q51.08 21.81 51.59 20.99Q52.10 20.17 52.10 19.16L52.10 19.16L52.10 17.10Q51.88 17.27 51.42 17.40Q50.96 17.54 50.40 17.64Q49.83 17.75 49.28 17.83Q48.74 17.92 48.31 17.97L48.31 17.97Q47.37 18.10 46.65 18.41Q45.93 18.72 45.54 19.22Q45.15 19.73 45.15 20.51L45.15 20.51Q45.15 21.25 45.52 21.75Q45.90 22.26 46.54 22.51Q47.18 22.77 48.04 22.77ZM67.84 26.38L67.84 26.38Q64.95 26.38 62.86 25.14Q60.77 23.90 59.63 21.68Q58.49 19.47 58.49 16.53L58.49 16.53Q58.49 13.56 59.63 11.35Q60.77 9.13 62.86 7.89Q64.95 6.65 67.84 6.65L67.84 6.65Q69.53 6.65 70.97 7.10Q72.40 7.54 73.52 8.36Q74.63 9.18 75.34 10.36Q76.06 11.54 76.34 13.01L76.34 13.01L71.57 13.90Q71.41 13.15 71.09 12.56Q70.76 11.97 70.30 11.55Q69.84 11.13 69.23 10.91Q68.63 10.69 67.89 10.69L67.89 10.69Q66.53 10.69 65.59 11.42Q64.66 12.16 64.19 13.47Q63.72 14.79 63.72 16.52L63.72 16.52Q63.72 18.22 64.19 19.53Q64.66 20.84 65.59 21.59Q66.53 22.34 67.89 22.34L67.89 22.34Q68.63 22.34 69.24 22.11Q69.86 21.88 70.34 21.45Q70.82 21.01 71.14 20.39Q71.47 19.78 71.60 19.01L71.60 19.01L76.37 19.88Q76.10 21.40 75.38 22.59Q74.66 23.78 73.55 24.63Q72.44 25.49 71.00 25.93Q69.55 26.38 67.84 26.38ZM85.75 16.48L82.26 20.41L82.26 14.24L83.03 14.24L89.29 6.89L95.22 6.89L86.96 16.48L85.75 16.48ZM82.74 26L77.62 26L77.62 0.54L82.74 0.54L82.74 26ZM95.58 26L89.54 26L83.80 17.63L87.24 13.99L95.58 26ZM111.45 26L95.51 26L95.51 22.89L104.92 11.17L104.92 11.03L95.80 11.03L95.80 6.89L111.13 6.89L111.13 10.29L102.24 21.73L102.24 21.86L111.45 21.86L111.45 26ZM122.04 26.38L122.04 26.38Q119.12 26.38 117.00 25.18Q114.88 23.98 113.75 21.78Q112.61 19.57 112.61 16.55L112.61 16.55Q112.61 13.59 113.74 11.37Q114.87 9.15 116.93 7.90Q119.00 6.65 121.79 6.65L121.79 6.65Q123.67 6.65 125.29 7.25Q126.92 7.85 128.15 9.06Q129.38 10.26 130.07 12.07Q130.76 13.88 130.76 16.34L130.76 16.34L130.76 17.78L114.71 17.78L114.71 14.57L128.25 14.57L125.86 15.42Q125.86 13.93 125.40 12.83Q124.95 11.73 124.05 11.12Q123.16 10.52 121.82 10.52L121.82 10.52Q120.51 10.52 119.58 11.13Q118.64 11.75 118.17 12.80Q117.69 13.85 117.69 15.20L117.69 15.20L117.69 17.47Q117.69 19.13 118.24 20.26Q118.80 21.39 119.80 21.95Q120.80 22.51 122.13 22.51L122.13 22.51Q123.04 22.51 123.77 22.26Q124.51 22.00 125.03 21.50Q125.55 20.99 125.82 20.26L125.82 20.26L130.47 21.13Q130.01 22.70 128.86 23.89Q127.72 25.08 126.00 25.73Q124.28 26.38 122.04 26.38ZM137.12 14.94L137.12 14.94L137.12 26L131.99 26L131.99 6.89L136.83 6.89L136.91 11.66L136.60 11.66Q137.36 9.27 138.88 7.96Q140.41 6.65 142.84 6.65L142.84 6.65Q144.82 6.65 146.29 7.52Q147.76 8.38 148.58 10.00Q149.40 11.61 149.40 13.85L149.40 13.85L149.40 26L144.28 26L144.28 14.74Q144.28 12.96 143.36 11.95Q142.45 10.94 140.82 10.94L140.82 10.94Q139.75 10.94 138.90 11.41Q138.06 11.88 137.59 12.77Q137.12 13.66 137.12 14.94Z"/></g>
        <defs xmlns="http://www.w3.org/2000/svg">
<linearGradient id="paint0_linear_5558_2243" x1="5.30176" y1="7.85773" x2="32.3018" y2="7.85774" gradientUnits="userSpaceOnUse">
<stop stop-color="#64C2DB"/>
<stop offset="0.307292" stop-color="#7476ED"/>
<stop offset="0.604167" stop-color="#C994DF"/>
<stop offset="1" stop-color="#E56F8C"/>
</linearGradient>
</defs>
      </svg>
    